# xmcd CD database file
#
# Track frame offsets:
#	150
#	61701
#	104999
#	140076
#	188321
#	227942
#
# Disc length: 3972 seconds
#
# Revision: 0
# Processed by: cddbd v1.5.1PL0 Copyright (c) Steve Scherf et al.
# Submitted via: CDex 1.51
#
DISCID=510f8206
DTITLE=Eric Alexander Quartet - The Live at the KEYNOTE
DYEAR=1999
DGENRE=Jazz
TTITLE0=the bee hive
TTITLE1=maybe september
TTITLE2=in the still of the night
TTITLE3=edward lee
TTITLE4=a nightingale sang in berkeley spuare
TTITLE5=stan's shuffle
EXTD=YEAR: 1999
EXTT0=
EXTT1=
EXTT2=
EXTT3=
EXTT4=
EXTT5=
PLAYORDER=
